<?xml version="1.0" encoding="UTF-8" standalone="no"?>
<!DOCTYPE svg PUBLIC "-//W3C//DTD SVG 1.1//EN"
 "http://www.w3.org/Graphics/SVG/1.1/DTD/svg11.dtd">
<!-- Generated by graphviz version 2.40.1 (20161225.0304)
 -->
<!-- Title: dependencies Pages: 1 -->
<svg width="3199pt" height="284pt"
 viewBox="0.00 0.00 3199.00 284.00" xmlns="http://www.w3.org/2000/svg" xmlns:xlink="http://www.w3.org/1999/xlink">
<g id="graph0" class="graph" transform="scale(1 1) rotate(0) translate(4 280)">
<title>dependencies</title>
<polygon fill="#ffffff" stroke="transparent" points="-4,4 -4,-280 3195,-280 3195,4 -4,4"/>
<text text-anchor="start" x="1574.5091" y="-42.4" font-family="sans-serif" font-weight="bold" font-size="14.00" fill="#000000">Legend</text>
<polygon fill="#ffffb3" stroke="transparent" points="1361.5,-10 1361.5,-30 1381.5,-30 1381.5,-10 1361.5,-10"/>
<text text-anchor="start" x="1385.129" y="-15.4" font-family="sans-serif" font-size="14.00" fill="#000000"> &#160;Declarations</text>
<polygon fill="#8dd3c7" stroke="transparent" points="1474.5,-10 1474.5,-30 1494.5,-30 1494.5,-10 1474.5,-10"/>
<text text-anchor="start" x="1498.2251" y="-15.4" font-family="sans-serif" font-size="14.00" fill="#000000"> &#160;Module</text>
<polygon fill="#80b1d3" stroke="transparent" points="1560.5,-10 1560.5,-30 1580.5,-30 1580.5,-10 1560.5,-10"/>
<text text-anchor="start" x="1584.2812" y="-15.4" font-family="sans-serif" font-size="14.00" fill="#000000"> &#160;Bootstrap</text>
<polygon fill="#fdb462" stroke="transparent" points="1657.5,-10 1657.5,-30 1677.5,-30 1677.5,-10 1657.5,-10"/>
<text text-anchor="start" x="1681.1732" y="-15.4" font-family="sans-serif" font-size="14.00" fill="#000000"> &#160;Providers</text>
<polygon fill="#fb8072" stroke="transparent" points="1753.5,-10 1753.5,-30 1773.5,-30 1773.5,-10 1753.5,-10"/>
<text text-anchor="start" x="1777.2258" y="-15.4" font-family="sans-serif" font-size="14.00" fill="#000000"> &#160;Exports</text>
<g id="clust1" class="cluster">
<title>cluster_AppModule</title>
<polygon fill="none" stroke="#000000" stroke-dasharray="1,5" points="8,-70 8,-268 3183,-268 3183,-70 8,-70"/>
</g>
<g id="clust2" class="cluster">
<title>cluster_AppModule_declarations</title>
<polygon fill="none" stroke="#000000" points="1250,-78 1250,-130 3175,-130 3175,-78 1250,-78"/>
</g>
<g id="clust16" class="cluster">
<title>cluster_AppModule_imports</title>
<polygon fill="none" stroke="#000000" points="552,-78 552,-130 1242,-130 1242,-78 552,-78"/>
</g>
<g id="clust18" class="cluster">
<title>cluster_AppModule_bootstrap</title>
<polygon fill="none" stroke="#000000" points="1755,-208 1755,-260 1879,-260 1879,-208 1755,-208"/>
</g>
<g id="clust19" class="cluster">
<title>cluster_AppModule_providers</title>
<polygon fill="none" stroke="#000000" points="16,-78 16,-130 544,-130 544,-78 16,-78"/>
</g>
<!-- AppComponent -->
<g id="node1" class="node">
<title>AppComponent</title>
<polygon fill="#ffffb3" stroke="#000000" points="3166.9399,-122 3061.0601,-122 3061.0601,-86 3166.9399,-86 3166.9399,-122"/>
<text text-anchor="middle" x="3114" y="-99.8" font-family="Times,serif" font-size="14.00" fill="#000000">AppComponent</text>
</g>
<!-- AppModule -->
<g id="node14" class="node">
<title>AppModule</title>
<polygon fill="#8dd3c7" stroke="#000000" points="1858.6571,-187 1855.6571,-191 1834.6571,-191 1831.6571,-187 1775.3429,-187 1775.3429,-151 1858.6571,-151 1858.6571,-187"/>
<text text-anchor="middle" x="1817" y="-164.8" font-family="Times,serif" font-size="14.00" fill="#000000">AppModule</text>
</g>
<!-- AppComponent&#45;&gt;AppModule -->
<g id="edge1" class="edge">
<title>AppComponent&#45;&gt;AppModule</title>
<path fill="none" stroke="#000000" d="M3114,-122.1532C3114,-145.7566 3114,-184 3114,-184 3114,-184 1868.6845,-184 1868.6845,-184"/>
<polygon fill="#000000" stroke="#000000" points="1868.6846,-180.5001 1858.6845,-184 1868.6845,-187.5001 1868.6846,-180.5001"/>
</g>
<!-- MenuComponent -->
<g id="node2" class="node">
<title>MenuComponent</title>
<polygon fill="#ffffb3" stroke="#000000" points="3042.9916,-122 2929.0084,-122 2929.0084,-86 3042.9916,-86 3042.9916,-122"/>
<text text-anchor="middle" x="2986" y="-99.8" font-family="Times,serif" font-size="14.00" fill="#000000">MenuComponent</text>
</g>
<!-- MenuComponent&#45;&gt;AppModule -->
<g id="edge2" class="edge">
<title>MenuComponent&#45;&gt;AppModule</title>
<path fill="none" stroke="#000000" d="M2986,-122.0109C2986,-144.4852 2986,-180 2986,-180 2986,-180 1868.95,-180 1868.95,-180"/>
<polygon fill="#000000" stroke="#000000" points="1868.95,-176.5001 1858.95,-180 1868.95,-183.5001 1868.95,-176.5001"/>
</g>
<!-- RodapeComponent -->
<g id="node3" class="node">
<title>RodapeComponent</title>
<polygon fill="#ffffb3" stroke="#000000" points="2911.0982,-122 2786.9018,-122 2786.9018,-86 2911.0982,-86 2911.0982,-122"/>
<text text-anchor="middle" x="2849" y="-99.8" font-family="Times,serif" font-size="14.00" fill="#000000">RodapeComponent</text>
</g>
<!-- RodapeComponent&#45;&gt;AppModule -->
<g id="edge3" class="edge">
<title>RodapeComponent&#45;&gt;AppModule</title>
<path fill="none" stroke="#000000" d="M2849,-122.0449C2849,-143.6623 2849,-177 2849,-177 2849,-177 1868.7338,-177 1868.7338,-177"/>
<polygon fill="#000000" stroke="#000000" points="1868.7338,-173.5001 1858.7338,-177 1868.7338,-180.5001 1868.7338,-173.5001"/>
</g>
<!-- EntrarComponent -->
<g id="node4" class="node">
<title>EntrarComponent</title>
<polygon fill="#ffffb3" stroke="#000000" points="2769.3118,-122 2652.6882,-122 2652.6882,-86 2769.3118,-86 2769.3118,-122"/>
<text text-anchor="middle" x="2711" y="-99.8" font-family="Times,serif" font-size="14.00" fill="#000000">EntrarComponent</text>
</g>
<!-- EntrarComponent&#45;&gt;AppModule -->
<g id="edge4" class="edge">
<title>EntrarComponent&#45;&gt;AppModule</title>
<path fill="none" stroke="#000000" d="M2711,-122.1289C2711,-142.5724 2711,-173 2711,-173 2711,-173 1868.9204,-173 1868.9204,-173"/>
<polygon fill="#000000" stroke="#000000" points="1868.9204,-169.5001 1858.9204,-173 1868.9203,-176.5001 1868.9204,-169.5001"/>
</g>
<!-- CadastrarComponent -->
<g id="node5" class="node">
<title>CadastrarComponent</title>
<polygon fill="#ffffb3" stroke="#000000" points="2634.4692,-122 2499.5308,-122 2499.5308,-86 2634.4692,-86 2634.4692,-122"/>
<text text-anchor="middle" x="2567" y="-99.8" font-family="Times,serif" font-size="14.00" fill="#000000">CadastrarComponent</text>
</g>
<!-- CadastrarComponent&#45;&gt;AppModule -->
<g id="edge5" class="edge">
<title>CadastrarComponent&#45;&gt;AppModule</title>
<path fill="none" stroke="#000000" d="M2567,-122.1061C2567,-141.3391 2567,-169 2567,-169 2567,-169 1868.6606,-169 1868.6606,-169"/>
<polygon fill="#000000" stroke="#000000" points="1868.6606,-165.5001 1858.6606,-169 1868.6605,-172.5001 1868.6606,-165.5001"/>
</g>
<!-- InicioComponent -->
<g id="node6" class="node">
<title>InicioComponent</title>
<polygon fill="#ffffb3" stroke="#000000" points="2481.9888,-122 2368.0112,-122 2368.0112,-86 2481.9888,-86 2481.9888,-122"/>
<text text-anchor="middle" x="2425" y="-99.8" font-family="Times,serif" font-size="14.00" fill="#000000">InicioComponent</text>
</g>
<!-- InicioComponent&#45;&gt;AppModule -->
<g id="edge6" class="edge">
<title>InicioComponent&#45;&gt;AppModule</title>
<path fill="none" stroke="#000000" d="M2425,-122.2667C2425,-140.5552 2425,-166 2425,-166 2425,-166 1868.7903,-166 1868.7903,-166"/>
<polygon fill="#000000" stroke="#000000" points="1868.7903,-162.5001 1858.7903,-166 1868.7903,-169.5001 1868.7903,-162.5001"/>
</g>
<!-- TemaComponent -->
<g id="node7" class="node">
<title>TemaComponent</title>
<polygon fill="#ffffb3" stroke="#000000" points="2349.705,-122 2236.295,-122 2236.295,-86 2349.705,-86 2349.705,-122"/>
<text text-anchor="middle" x="2293" y="-99.8" font-family="Times,serif" font-size="14.00" fill="#000000">TemaComponent</text>
</g>
<!-- TemaComponent&#45;&gt;AppModule -->
<g id="edge7" class="edge">
<title>TemaComponent&#45;&gt;AppModule</title>
<path fill="none" stroke="#000000" d="M2293,-122.0336C2293,-139.0597 2293,-162 2293,-162 2293,-162 1868.8246,-162 1868.8246,-162"/>
<polygon fill="#000000" stroke="#000000" points="1868.8247,-158.5001 1858.8246,-162 1868.8246,-165.5001 1868.8247,-158.5001"/>
</g>
<!-- TemaEditComponent -->
<g id="node8" class="node">
<title>TemaEditComponent</title>
<polygon fill="#ffffb3" stroke="#000000" points="2218.0394,-122 2081.9606,-122 2081.9606,-86 2218.0394,-86 2218.0394,-122"/>
<text text-anchor="middle" x="2150" y="-99.8" font-family="Times,serif" font-size="14.00" fill="#000000">TemaEditComponent</text>
</g>
<!-- TemaEditComponent&#45;&gt;AppModule -->
<g id="edge8" class="edge">
<title>TemaEditComponent&#45;&gt;AppModule</title>
<path fill="none" stroke="#000000" d="M2150,-122.0091C2150,-138.0494 2150,-159 2150,-159 2150,-159 1868.8375,-159 1868.8375,-159"/>
<polygon fill="#000000" stroke="#000000" points="1868.8375,-155.5001 1858.8375,-159 1868.8375,-162.5001 1868.8375,-155.5001"/>
</g>
<!-- TemaDeleteComponent -->
<g id="node9" class="node">
<title>TemaDeleteComponent</title>
<polygon fill="#ffffb3" stroke="#000000" points="2063.7366,-122 1914.2634,-122 1914.2634,-86 2063.7366,-86 2063.7366,-122"/>
<text text-anchor="middle" x="1989" y="-99.8" font-family="Times,serif" font-size="14.00" fill="#000000">TemaDeleteComponent</text>
</g>
<!-- TemaDeleteComponent&#45;&gt;AppModule -->
<g id="edge9" class="edge">
<title>TemaDeleteComponent&#45;&gt;AppModule</title>
<path fill="none" stroke="#000000" d="M1989,-122.1243C1989,-136.7832 1989,-155 1989,-155 1989,-155 1869.0759,-155 1869.0759,-155"/>
<polygon fill="#000000" stroke="#000000" points="1869.076,-151.5001 1859.0759,-155 1869.0759,-158.5001 1869.076,-151.5001"/>
</g>
<!-- PostagemEditComponent -->
<g id="node10" class="node">
<title>PostagemEditComponent</title>
<polygon fill="#ffffb3" stroke="#000000" points="1896.6038,-122 1737.3962,-122 1737.3962,-86 1896.6038,-86 1896.6038,-122"/>
<text text-anchor="middle" x="1817" y="-99.8" font-family="Times,serif" font-size="14.00" fill="#000000">PostagemEditComponent</text>
</g>
<!-- PostagemEditComponent&#45;&gt;AppModule -->
<g id="edge10" class="edge">
<title>PostagemEditComponent&#45;&gt;AppModule</title>
<path fill="none" stroke="#000000" d="M1817,-122.1061C1817,-122.1061 1817,-140.991 1817,-140.991"/>
<polygon fill="#000000" stroke="#000000" points="1813.5001,-140.9909 1817,-150.991 1820.5001,-140.991 1813.5001,-140.9909"/>
</g>
<!-- PostagemDeleteComponent -->
<g id="node11" class="node">
<title>PostagemDeleteComponent</title>
<polygon fill="#ffffb3" stroke="#000000" points="1719.3019,-122 1546.6981,-122 1546.6981,-86 1719.3019,-86 1719.3019,-122"/>
<text text-anchor="middle" x="1633" y="-99.8" font-family="Times,serif" font-size="14.00" fill="#000000">PostagemDeleteComponent</text>
</g>
<!-- PostagemDeleteComponent&#45;&gt;AppModule -->
<g id="edge11" class="edge">
<title>PostagemDeleteComponent&#45;&gt;AppModule</title>
<path fill="none" stroke="#000000" d="M1633,-122.1243C1633,-136.7832 1633,-155 1633,-155 1633,-155 1765.2476,-155 1765.2476,-155"/>
<polygon fill="#000000" stroke="#000000" points="1765.2476,-158.5001 1775.2476,-155 1765.2475,-151.5001 1765.2476,-158.5001"/>
</g>
<!-- UserEditComponent -->
<g id="node12" class="node">
<title>UserEditComponent</title>
<polygon fill="#ffffb3" stroke="#000000" points="1528.5926,-122 1397.4074,-122 1397.4074,-86 1528.5926,-86 1528.5926,-122"/>
<text text-anchor="middle" x="1463" y="-99.8" font-family="Times,serif" font-size="14.00" fill="#000000">UserEditComponent</text>
</g>
<!-- UserEditComponent&#45;&gt;AppModule -->
<g id="edge12" class="edge">
<title>UserEditComponent&#45;&gt;AppModule</title>
<path fill="none" stroke="#000000" d="M1463,-122.0091C1463,-138.0494 1463,-159 1463,-159 1463,-159 1765.0014,-159 1765.0014,-159"/>
<polygon fill="#000000" stroke="#000000" points="1765.0015,-162.5001 1775.0014,-159 1765.0014,-155.5001 1765.0015,-162.5001"/>
</g>
<!-- AlertasComponent -->
<g id="node13" class="node">
<title>AlertasComponent</title>
<polygon fill="#ffffb3" stroke="#000000" points="1379.7548,-122 1258.2452,-122 1258.2452,-86 1379.7548,-86 1379.7548,-122"/>
<text text-anchor="middle" x="1319" y="-99.8" font-family="Times,serif" font-size="14.00" fill="#000000">AlertasComponent</text>
</g>
<!-- AlertasComponent&#45;&gt;AppModule -->
<g id="edge13" class="edge">
<title>AlertasComponent&#45;&gt;AppModule</title>
<path fill="none" stroke="#000000" d="M1319,-122.0336C1319,-139.0597 1319,-162 1319,-162 1319,-162 1764.97,-162 1764.97,-162"/>
<polygon fill="#000000" stroke="#000000" points="1764.97,-165.5001 1774.97,-162 1764.97,-158.5001 1764.97,-165.5001"/>
</g>
<!-- AppComponent  -->
<g id="node20" class="node">
<title>AppComponent </title>
<polygon fill="#80b1d3" stroke="#000000" points="1871.439,-252 1762.561,-252 1762.561,-216 1871.439,-216 1871.439,-252"/>
<text text-anchor="middle" x="1817" y="-229.8" font-family="Times,serif" font-size="14.00" fill="#000000">AppComponent </text>
</g>
<!-- AppModule&#45;&gt;AppComponent  -->
<g id="edge19" class="edge">
<title>AppModule&#45;&gt;AppComponent </title>
<path fill="none" stroke="#000000" stroke-dasharray="1,5" d="M1817,-187.1061C1817,-187.1061 1817,-205.991 1817,-205.991"/>
<polygon fill="#000000" stroke="#000000" points="1813.5001,-205.9909 1817,-215.991 1820.5001,-205.991 1813.5001,-205.9909"/>
</g>
<!-- BrowserModule -->
<g id="node15" class="node">
<title>BrowserModule</title>
<polygon fill="#8dd3c7" stroke="#000000" points="1234.4734,-122 1231.4734,-126 1210.4734,-126 1207.4734,-122 1127.5266,-122 1127.5266,-86 1234.4734,-86 1234.4734,-122"/>
<text text-anchor="middle" x="1181" y="-99.8" font-family="Times,serif" font-size="14.00" fill="#000000">BrowserModule</text>
</g>
<!-- BrowserModule&#45;&gt;AppModule -->
<g id="edge14" class="edge">
<title>BrowserModule&#45;&gt;AppModule</title>
<path fill="none" stroke="#000000" d="M1181,-122.2667C1181,-140.5552 1181,-166 1181,-166 1181,-166 1765.2703,-166 1765.2703,-166"/>
<polygon fill="#000000" stroke="#000000" points="1765.2703,-169.5001 1775.2703,-166 1765.2702,-162.5001 1765.2703,-169.5001"/>
</g>
<!-- AppRoutingModule -->
<g id="node16" class="node">
<title>AppRoutingModule</title>
<polygon fill="#8dd3c7" stroke="#000000" points="1109.2744,-122 1106.2744,-126 1085.2744,-126 1082.2744,-122 980.7256,-122 980.7256,-86 1109.2744,-86 1109.2744,-122"/>
<text text-anchor="middle" x="1045" y="-99.8" font-family="Times,serif" font-size="14.00" fill="#000000">AppRoutingModule</text>
</g>
<!-- AppRoutingModule&#45;&gt;AppModule -->
<g id="edge15" class="edge">
<title>AppRoutingModule&#45;&gt;AppModule</title>
<path fill="none" stroke="#000000" d="M1045,-122.1061C1045,-141.3391 1045,-169 1045,-169 1045,-169 1765.2202,-169 1765.2202,-169"/>
<polygon fill="#000000" stroke="#000000" points="1765.2202,-172.5001 1775.2202,-169 1765.2202,-165.5001 1765.2202,-172.5001"/>
</g>
<!-- HttpClientModule -->
<g id="node17" class="node">
<title>HttpClientModule</title>
<polygon fill="#8dd3c7" stroke="#000000" points="962.1611,-122 959.1611,-126 938.1611,-126 935.1611,-122 843.8389,-122 843.8389,-86 962.1611,-86 962.1611,-122"/>
<text text-anchor="middle" x="903" y="-99.8" font-family="Times,serif" font-size="14.00" fill="#000000">HttpClientModule</text>
</g>
<!-- HttpClientModule&#45;&gt;AppModule -->
<g id="edge16" class="edge">
<title>HttpClientModule&#45;&gt;AppModule</title>
<path fill="none" stroke="#000000" d="M903,-122.1289C903,-142.5724 903,-173 903,-173 903,-173 1765.0511,-173 1765.0511,-173"/>
<polygon fill="#000000" stroke="#000000" points="1765.0511,-176.5001 1775.0511,-173 1765.0511,-169.5001 1765.0511,-176.5001"/>
</g>
<!-- FormsModule -->
<g id="node18" class="node">
<title>FormsModule</title>
<polygon fill="#8dd3c7" stroke="#000000" points="825.8288,-122 822.8288,-126 801.8288,-126 798.8288,-122 730.1712,-122 730.1712,-86 825.8288,-86 825.8288,-122"/>
<text text-anchor="middle" x="778" y="-99.8" font-family="Times,serif" font-size="14.00" fill="#000000">FormsModule</text>
</g>
<!-- FormsModule&#45;&gt;AppModule -->
<g id="edge17" class="edge">
<title>FormsModule&#45;&gt;AppModule</title>
<path fill="none" stroke="#000000" d="M778,-122.0449C778,-143.6623 778,-177 778,-177 778,-177 1765.3065,-177 1765.3065,-177"/>
<polygon fill="#000000" stroke="#000000" points="1765.3066,-180.5001 1775.3065,-177 1765.3065,-173.5001 1765.3066,-180.5001"/>
</g>
<!-- ModalModule.forRoot() -->
<g id="node19" class="node">
<title>ModalModule.forRoot()</title>
<polygon fill="#8dd3c7" stroke="#000000" points="712.4699,-122 709.4699,-126 688.4699,-126 685.4699,-122 559.5301,-122 559.5301,-86 712.4699,-86 712.4699,-122"/>
<text text-anchor="middle" x="636" y="-99.8" font-family="Times,serif" font-size="14.00" fill="#000000">ModalModule.forRoot()</text>
</g>
<!-- ModalModule.forRoot()&#45;&gt;AppModule -->
<g id="edge18" class="edge">
<title>ModalModule.forRoot()&#45;&gt;AppModule</title>
<path fill="none" stroke="#000000" d="M636,-122.0109C636,-144.4852 636,-180 636,-180 636,-180 1765.3145,-180 1765.3145,-180"/>
<polygon fill="#000000" stroke="#000000" points="1765.3145,-183.5001 1775.3145,-180 1765.3144,-176.5001 1765.3145,-183.5001"/>
</g>
<!-- { provide: LocationStrategy, useClass: HashLocationStrategy } -->
<g id="node21" class="node">
<title>{ provide: LocationStrategy, useClass: HashLocationStrategy }</title>
<ellipse fill="#fdb462" stroke="#000000" cx="280" cy="-104" rx="256.1093" ry="18"/>
<text text-anchor="middle" x="280" y="-99.8" font-family="Times,serif" font-size="14.00" fill="#000000">{ provide: LocationStrategy, useClass: HashLocationStrategy }</text>
</g>
<!-- { provide: LocationStrategy, useClass: HashLocationStrategy }&#45;&gt;AppModule -->
<g id="edge20" class="edge">
<title>{ provide: LocationStrategy, useClass: HashLocationStrategy }&#45;&gt;AppModule</title>
<path fill="none" stroke="#000000" d="M280,-122.1532C280,-145.7566 280,-184 280,-184 280,-184 1765.0918,-184 1765.0918,-184"/>
<polygon fill="#000000" stroke="#000000" points="1765.0919,-187.5001 1775.0918,-184 1765.0918,-180.5001 1765.0919,-187.5001"/>
</g>
</g>
</svg>
