<?xml version="1.0" encoding="UTF-8" standalone="no"?>
<!DOCTYPE svg PUBLIC "-//W3C//DTD SVG 1.1//EN"
 "http://www.w3.org/Graphics/SVG/1.1/DTD/svg11.dtd">
<!-- Generated by graphviz version 2.46.0 (20210119.1425)
 -->
<!-- Title: dependencies Pages: 1 -->
<svg width="2118pt" height="284pt"
 viewBox="0.00 0.00 2118.00 284.00" xmlns="http://www.w3.org/2000/svg" xmlns:xlink="http://www.w3.org/1999/xlink">
<g id="graph0" class="graph" transform="scale(1 1) rotate(0) translate(4 280)">
<title>dependencies</title>
<polygon fill="white" stroke="transparent" points="-4,4 -4,-280 2114,-280 2114,4 -4,4"/>
<text text-anchor="start" x="1034.01" y="-42.4" font-family="sans-serif" font-weight="bold" font-size="14.00">Legend</text>
<polygon fill="#ffffb3" stroke="transparent" points="821,-10 821,-30 841,-30 841,-10 821,-10"/>
<text text-anchor="start" x="844.63" y="-15.4" font-family="sans-serif" font-size="14.00"> &#160;Declarations</text>
<polygon fill="#8dd3c7" stroke="transparent" points="934,-10 934,-30 954,-30 954,-10 934,-10"/>
<text text-anchor="start" x="957.73" y="-15.4" font-family="sans-serif" font-size="14.00"> &#160;Module</text>
<polygon fill="#80b1d3" stroke="transparent" points="1020,-10 1020,-30 1040,-30 1040,-10 1020,-10"/>
<text text-anchor="start" x="1043.78" y="-15.4" font-family="sans-serif" font-size="14.00"> &#160;Bootstrap</text>
<polygon fill="#fdb462" stroke="transparent" points="1117,-10 1117,-30 1137,-30 1137,-10 1117,-10"/>
<text text-anchor="start" x="1140.67" y="-15.4" font-family="sans-serif" font-size="14.00"> &#160;Providers</text>
<polygon fill="#fb8072" stroke="transparent" points="1213,-10 1213,-30 1233,-30 1233,-10 1213,-10"/>
<text text-anchor="start" x="1236.73" y="-15.4" font-family="sans-serif" font-size="14.00"> &#160;Exports</text>
<g id="clust1" class="cluster">
<title>cluster_AppModule</title>
<polygon fill="none" stroke="black" stroke-dasharray="1,5" points="8,-70 8,-268 2102,-268 2102,-70 8,-70"/>
</g>
<g id="clust2" class="cluster">
<title>cluster_AppModule_declarations</title>
<polygon fill="none" stroke="black" points="168,-78 168,-130 2094,-130 2094,-78 168,-78"/>
</g>
<g id="clust16" class="cluster">
<title>cluster_AppModule_imports</title>
<polygon fill="none" stroke="black" points="16,-78 16,-130 160,-130 160,-78 16,-78"/>
</g>
<g id="clust18" class="cluster">
<title>cluster_AppModule_bootstrap</title>
<polygon fill="none" stroke="black" points="1031,-208 1031,-260 1155,-260 1155,-208 1031,-208"/>
</g>
<!-- AlertasComponent -->
<g id="node1" class="node">
<title>AlertasComponent</title>
<polygon fill="#ffffb3" stroke="black" points="2085.75,-122 1964.25,-122 1964.25,-86 2085.75,-86 2085.75,-122"/>
<text text-anchor="middle" x="2025" y="-99.8" font-family="Times,serif" font-size="14.00">AlertasComponent</text>
</g>
<!-- AppModule -->
<g id="node14" class="node">
<title>AppModule</title>
<polygon fill="#8dd3c7" stroke="black" points="1134.66,-187 1131.66,-191 1110.66,-191 1107.66,-187 1051.34,-187 1051.34,-151 1134.66,-151 1134.66,-187"/>
<text text-anchor="middle" x="1093" y="-164.8" font-family="Times,serif" font-size="14.00">AppModule</text>
</g>
<!-- AlertasComponent&#45;&gt;AppModule -->
<g id="edge1" class="edge">
<title>AlertasComponent&#45;&gt;AppModule</title>
<path fill="none" stroke="black" d="M2025,-122.09C2025,-145.13 2025,-182 2025,-182 2025,-182 1144.86,-182 1144.86,-182"/>
<polygon fill="black" stroke="black" points="1144.86,-178.5 1134.86,-182 1144.86,-185.5 1144.86,-178.5"/>
</g>
<!-- AppComponent -->
<g id="node2" class="node">
<title>AppComponent</title>
<polygon fill="#ffffb3" stroke="black" points="1945.94,-122 1840.06,-122 1840.06,-86 1945.94,-86 1945.94,-122"/>
<text text-anchor="middle" x="1893" y="-99.8" font-family="Times,serif" font-size="14.00">AppComponent</text>
</g>
<!-- AppComponent&#45;&gt;AppModule -->
<g id="edge2" class="edge">
<title>AppComponent&#45;&gt;AppModule</title>
<path fill="none" stroke="black" d="M1893,-122.04C1893,-143.66 1893,-177 1893,-177 1893,-177 1144.89,-177 1144.89,-177"/>
<polygon fill="black" stroke="black" points="1144.89,-173.5 1134.89,-177 1144.89,-180.5 1144.89,-173.5"/>
</g>
<!-- CadastrarComponent -->
<g id="node3" class="node">
<title>CadastrarComponent</title>
<polygon fill="#ffffb3" stroke="black" points="1822.47,-122 1687.53,-122 1687.53,-86 1822.47,-86 1822.47,-122"/>
<text text-anchor="middle" x="1755" y="-99.8" font-family="Times,serif" font-size="14.00">CadastrarComponent</text>
</g>
<!-- CadastrarComponent&#45;&gt;AppModule -->
<g id="edge3" class="edge">
<title>CadastrarComponent&#45;&gt;AppModule</title>
<path fill="none" stroke="black" d="M1755,-122.22C1755,-142.37 1755,-172 1755,-172 1755,-172 1144.66,-172 1144.66,-172"/>
<polygon fill="black" stroke="black" points="1144.66,-168.5 1134.66,-172 1144.66,-175.5 1144.66,-168.5"/>
</g>
<!-- EntrarComponent -->
<g id="node4" class="node">
<title>EntrarComponent</title>
<polygon fill="#ffffb3" stroke="black" points="1669.31,-122 1552.69,-122 1552.69,-86 1669.31,-86 1669.31,-122"/>
<text text-anchor="middle" x="1611" y="-99.8" font-family="Times,serif" font-size="14.00">EntrarComponent</text>
</g>
<!-- EntrarComponent&#45;&gt;AppModule -->
<g id="edge4" class="edge">
<title>EntrarComponent&#45;&gt;AppModule</title>
<path fill="none" stroke="black" d="M1611,-122.22C1611,-140.83 1611,-167 1611,-167 1611,-167 1144.95,-167 1144.95,-167"/>
<polygon fill="black" stroke="black" points="1144.95,-163.5 1134.95,-167 1144.95,-170.5 1144.95,-163.5"/>
</g>
<!-- InicioComponent -->
<g id="node5" class="node">
<title>InicioComponent</title>
<polygon fill="#ffffb3" stroke="black" points="1534.99,-122 1421.01,-122 1421.01,-86 1534.99,-86 1534.99,-122"/>
<text text-anchor="middle" x="1478" y="-99.8" font-family="Times,serif" font-size="14.00">InicioComponent</text>
</g>
<!-- InicioComponent&#45;&gt;AppModule -->
<g id="edge5" class="edge">
<title>InicioComponent&#45;&gt;AppModule</title>
<path fill="none" stroke="black" d="M1478,-122.03C1478,-139.06 1478,-162 1478,-162 1478,-162 1144.93,-162 1144.93,-162"/>
<polygon fill="black" stroke="black" points="1144.93,-158.5 1134.93,-162 1144.93,-165.5 1144.93,-158.5"/>
</g>
<!-- MenuComponent -->
<g id="node6" class="node">
<title>MenuComponent</title>
<polygon fill="#ffffb3" stroke="black" points="1402.99,-122 1289.01,-122 1289.01,-86 1402.99,-86 1402.99,-122"/>
<text text-anchor="middle" x="1346" y="-99.8" font-family="Times,serif" font-size="14.00">MenuComponent</text>
</g>
<!-- MenuComponent&#45;&gt;AppModule -->
<g id="edge6" class="edge">
<title>MenuComponent&#45;&gt;AppModule</title>
<path fill="none" stroke="black" d="M1346,-122.24C1346,-137.57 1346,-157 1346,-157 1346,-157 1144.78,-157 1144.78,-157"/>
<polygon fill="black" stroke="black" points="1144.78,-153.5 1134.78,-157 1144.78,-160.5 1144.78,-153.5"/>
</g>
<!-- PostagemDeleteComponent -->
<g id="node7" class="node">
<title>PostagemDeleteComponent</title>
<polygon fill="#ffffb3" stroke="black" points="1271.3,-122 1098.7,-122 1098.7,-86 1271.3,-86 1271.3,-122"/>
<text text-anchor="middle" x="1185" y="-99.8" font-family="Times,serif" font-size="14.00">PostagemDeleteComponent</text>
</g>
<!-- PostagemDeleteComponent&#45;&gt;AppModule -->
<g id="edge7" class="edge">
<title>PostagemDeleteComponent&#45;&gt;AppModule</title>
<path fill="none" stroke="black" d="M1116.84,-122.11C1116.84,-122.11 1116.84,-140.99 1116.84,-140.99"/>
<polygon fill="black" stroke="black" points="1113.34,-140.99 1116.84,-150.99 1120.34,-140.99 1113.34,-140.99"/>
</g>
<!-- PostagemEditComponent -->
<g id="node8" class="node">
<title>PostagemEditComponent</title>
<polygon fill="#ffffb3" stroke="black" points="1080.6,-122 921.4,-122 921.4,-86 1080.6,-86 1080.6,-122"/>
<text text-anchor="middle" x="1001" y="-99.8" font-family="Times,serif" font-size="14.00">PostagemEditComponent</text>
</g>
<!-- PostagemEditComponent&#45;&gt;AppModule -->
<g id="edge8" class="edge">
<title>PostagemEditComponent&#45;&gt;AppModule</title>
<path fill="none" stroke="black" d="M1065.86,-122.11C1065.86,-122.11 1065.86,-140.99 1065.86,-140.99"/>
<polygon fill="black" stroke="black" points="1062.36,-140.99 1065.86,-150.99 1069.36,-140.99 1062.36,-140.99"/>
</g>
<!-- RodapeComponent -->
<g id="node9" class="node">
<title>RodapeComponent</title>
<polygon fill="#ffffb3" stroke="black" points="903.1,-122 778.9,-122 778.9,-86 903.1,-86 903.1,-122"/>
<text text-anchor="middle" x="841" y="-99.8" font-family="Times,serif" font-size="14.00">RodapeComponent</text>
</g>
<!-- RodapeComponent&#45;&gt;AppModule -->
<g id="edge9" class="edge">
<title>RodapeComponent&#45;&gt;AppModule</title>
<path fill="none" stroke="black" d="M841,-122.24C841,-137.57 841,-157 841,-157 841,-157 1041.1,-157 1041.1,-157"/>
<polygon fill="black" stroke="black" points="1041.1,-160.5 1051.1,-157 1041.1,-153.5 1041.1,-160.5"/>
</g>
<!-- TemaComponent -->
<g id="node10" class="node">
<title>TemaComponent</title>
<polygon fill="#ffffb3" stroke="black" points="760.7,-122 647.3,-122 647.3,-86 760.7,-86 760.7,-122"/>
<text text-anchor="middle" x="704" y="-99.8" font-family="Times,serif" font-size="14.00">TemaComponent</text>
</g>
<!-- TemaComponent&#45;&gt;AppModule -->
<g id="edge10" class="edge">
<title>TemaComponent&#45;&gt;AppModule</title>
<path fill="none" stroke="black" d="M704,-122.03C704,-139.06 704,-162 704,-162 704,-162 1041,-162 1041,-162"/>
<polygon fill="black" stroke="black" points="1041,-165.5 1051,-162 1041,-158.5 1041,-165.5"/>
</g>
<!-- TemaDeleteComponent -->
<g id="node11" class="node">
<title>TemaDeleteComponent</title>
<polygon fill="#ffffb3" stroke="black" points="629.74,-122 480.26,-122 480.26,-86 629.74,-86 629.74,-122"/>
<text text-anchor="middle" x="555" y="-99.8" font-family="Times,serif" font-size="14.00">TemaDeleteComponent</text>
</g>
<!-- TemaDeleteComponent&#45;&gt;AppModule -->
<g id="edge11" class="edge">
<title>TemaDeleteComponent&#45;&gt;AppModule</title>
<path fill="none" stroke="black" d="M555,-122.22C555,-140.83 555,-167 555,-167 555,-167 1041.23,-167 1041.23,-167"/>
<polygon fill="black" stroke="black" points="1041.23,-170.5 1051.23,-167 1041.23,-163.5 1041.23,-170.5"/>
</g>
<!-- TemaEditComponent -->
<g id="node12" class="node">
<title>TemaEditComponent</title>
<polygon fill="#ffffb3" stroke="black" points="462.04,-122 325.96,-122 325.96,-86 462.04,-86 462.04,-122"/>
<text text-anchor="middle" x="394" y="-99.8" font-family="Times,serif" font-size="14.00">TemaEditComponent</text>
</g>
<!-- TemaEditComponent&#45;&gt;AppModule -->
<g id="edge12" class="edge">
<title>TemaEditComponent&#45;&gt;AppModule</title>
<path fill="none" stroke="black" d="M394,-122.22C394,-142.37 394,-172 394,-172 394,-172 1041.11,-172 1041.11,-172"/>
<polygon fill="black" stroke="black" points="1041.11,-175.5 1051.11,-172 1041.11,-168.5 1041.11,-175.5"/>
</g>
<!-- UserEditComponent -->
<g id="node13" class="node">
<title>UserEditComponent</title>
<polygon fill="#ffffb3" stroke="black" points="307.59,-122 176.41,-122 176.41,-86 307.59,-86 307.59,-122"/>
<text text-anchor="middle" x="242" y="-99.8" font-family="Times,serif" font-size="14.00">UserEditComponent</text>
</g>
<!-- UserEditComponent&#45;&gt;AppModule -->
<g id="edge13" class="edge">
<title>UserEditComponent&#45;&gt;AppModule</title>
<path fill="none" stroke="black" d="M242,-122.04C242,-143.66 242,-177 242,-177 242,-177 1041.09,-177 1041.09,-177"/>
<polygon fill="black" stroke="black" points="1041.09,-180.5 1051.09,-177 1041.09,-173.5 1041.09,-180.5"/>
</g>
<!-- AppComponent  -->
<g id="node16" class="node">
<title>AppComponent </title>
<polygon fill="#80b1d3" stroke="black" points="1147.44,-252 1038.56,-252 1038.56,-216 1147.44,-216 1147.44,-252"/>
<text text-anchor="middle" x="1093" y="-229.8" font-family="Times,serif" font-size="14.00">AppComponent </text>
</g>
<!-- AppModule&#45;&gt;AppComponent  -->
<g id="edge15" class="edge">
<title>AppModule&#45;&gt;AppComponent </title>
<path fill="none" stroke="black" stroke-dasharray="1,5" d="M1093,-187.11C1093,-187.11 1093,-205.99 1093,-205.99"/>
<polygon fill="black" stroke="black" points="1089.5,-205.99 1093,-215.99 1096.5,-205.99 1089.5,-205.99"/>
</g>
<!-- AppRoutingModule -->
<g id="node15" class="node">
<title>AppRoutingModule</title>
<polygon fill="#8dd3c7" stroke="black" points="152.27,-122 149.27,-126 128.27,-126 125.27,-122 23.73,-122 23.73,-86 152.27,-86 152.27,-122"/>
<text text-anchor="middle" x="88" y="-99.8" font-family="Times,serif" font-size="14.00">AppRoutingModule</text>
</g>
<!-- AppRoutingModule&#45;&gt;AppModule -->
<g id="edge14" class="edge">
<title>AppRoutingModule&#45;&gt;AppModule</title>
<path fill="none" stroke="black" d="M88,-122.09C88,-145.13 88,-182 88,-182 88,-182 1041.1,-182 1041.1,-182"/>
<polygon fill="black" stroke="black" points="1041.1,-185.5 1051.1,-182 1041.1,-178.5 1041.1,-185.5"/>
</g>
</g>
</svg>
