<?xml version="1.0" encoding="UTF-8" standalone="no"?>
<!DOCTYPE svg PUBLIC "-//W3C//DTD SVG 1.1//EN"
 "http://www.w3.org/Graphics/SVG/1.1/DTD/svg11.dtd">
<!-- Generated by graphviz version 2.40.1 (20161225.0304)
 -->
<!-- Title: dependencies Pages: 1 -->
<svg width="3544pt" height="290pt"
 viewBox="0.00 0.00 3544.00 290.00" xmlns="http://www.w3.org/2000/svg" xmlns:xlink="http://www.w3.org/1999/xlink">
<g id="graph0" class="graph" transform="scale(1 1) rotate(0) translate(4 286)">
<title>dependencies</title>
<polygon fill="#ffffff" stroke="transparent" points="-4,4 -4,-286 3540,-286 3540,4 -4,4"/>
<text text-anchor="start" x="1747.0091" y="-42.4" font-family="sans-serif" font-weight="bold" font-size="14.00" fill="#000000">Legend</text>
<polygon fill="#ffffb3" stroke="transparent" points="1534,-10 1534,-30 1554,-30 1554,-10 1534,-10"/>
<text text-anchor="start" x="1557.629" y="-15.4" font-family="sans-serif" font-size="14.00" fill="#000000"> &#160;Declarations</text>
<polygon fill="#8dd3c7" stroke="transparent" points="1647,-10 1647,-30 1667,-30 1667,-10 1647,-10"/>
<text text-anchor="start" x="1670.7251" y="-15.4" font-family="sans-serif" font-size="14.00" fill="#000000"> &#160;Module</text>
<polygon fill="#80b1d3" stroke="transparent" points="1733,-10 1733,-30 1753,-30 1753,-10 1733,-10"/>
<text text-anchor="start" x="1756.7812" y="-15.4" font-family="sans-serif" font-size="14.00" fill="#000000"> &#160;Bootstrap</text>
<polygon fill="#fdb462" stroke="transparent" points="1830,-10 1830,-30 1850,-30 1850,-10 1830,-10"/>
<text text-anchor="start" x="1853.6732" y="-15.4" font-family="sans-serif" font-size="14.00" fill="#000000"> &#160;Providers</text>
<polygon fill="#fb8072" stroke="transparent" points="1926,-10 1926,-30 1946,-30 1946,-10 1926,-10"/>
<text text-anchor="start" x="1949.7258" y="-15.4" font-family="sans-serif" font-size="14.00" fill="#000000"> &#160;Exports</text>
<g id="clust1" class="cluster">
<title>cluster_AppModule</title>
<polygon fill="none" stroke="#000000" stroke-dasharray="1,5" points="8,-70 8,-274 3184,-274 3184,-70 8,-70"/>
</g>
<g id="clust2" class="cluster">
<title>cluster_AppModule_declarations</title>
<polygon fill="none" stroke="#000000" points="552,-78 552,-130 2477,-130 2477,-78 552,-78"/>
</g>
<g id="clust16" class="cluster">
<title>cluster_AppModule_imports</title>
<polygon fill="none" stroke="#000000" points="2485,-78 2485,-130 3176,-130 3176,-78 2485,-78"/>
</g>
<g id="clust18" class="cluster">
<title>cluster_AppModule_bootstrap</title>
<polygon fill="none" stroke="#000000" points="1807,-214 1807,-266 1931,-266 1931,-214 1807,-214"/>
</g>
<g id="clust19" class="cluster">
<title>cluster_AppModule_providers</title>
<polygon fill="none" stroke="#000000" points="16,-78 16,-130 544,-130 544,-78 16,-78"/>
</g>
<g id="clust20" class="cluster">
<title>cluster_AppRoutingModule</title>
<polygon fill="none" stroke="#000000" stroke-dasharray="1,5" points="3192,-138 3192,-206 3528,-206 3528,-138 3192,-138"/>
</g>
<g id="clust22" class="cluster">
<title>cluster_AppRoutingModule_imports</title>
<polygon fill="none" stroke="#000000" points="3326,-146 3326,-198 3520,-198 3520,-146 3326,-146"/>
</g>
<g id="clust23" class="cluster">
<title>cluster_AppRoutingModule_exports</title>
<polygon fill="none" stroke="#000000" points="3200,-146 3200,-198 3318,-198 3318,-146 3200,-146"/>
</g>
<!-- AppComponent -->
<g id="node1" class="node">
<title>AppComponent</title>
<polygon fill="#ffffb3" stroke="#000000" points="2468.9399,-122 2363.0601,-122 2363.0601,-86 2468.9399,-86 2468.9399,-122"/>
<text text-anchor="middle" x="2416" y="-99.8" font-family="Times,serif" font-size="14.00" fill="#000000">AppComponent</text>
</g>
<!-- AppModule -->
<g id="node14" class="node">
<title>AppModule</title>
<polygon fill="#8dd3c7" stroke="#000000" points="1910.6571,-190 1907.6571,-194 1886.6571,-194 1883.6571,-190 1827.3429,-190 1827.3429,-154 1910.6571,-154 1910.6571,-190"/>
<text text-anchor="middle" x="1869" y="-167.8" font-family="Times,serif" font-size="14.00" fill="#000000">AppModule</text>
</g>
<!-- AppComponent&#45;&gt;AppModule -->
<g id="edge1" class="edge">
<title>AppComponent&#45;&gt;AppModule</title>
<path fill="none" stroke="#000000" d="M2416,-122.1061C2416,-141.3391 2416,-169 2416,-169 2416,-169 1921.0139,-169 1921.0139,-169"/>
<polygon fill="#000000" stroke="#000000" points="1921.0139,-165.5001 1911.0139,-169 1921.0139,-172.5001 1921.0139,-165.5001"/>
</g>
<!-- MenuComponent -->
<g id="node2" class="node">
<title>MenuComponent</title>
<polygon fill="#ffffb3" stroke="#000000" points="2344.9916,-122 2231.0084,-122 2231.0084,-86 2344.9916,-86 2344.9916,-122"/>
<text text-anchor="middle" x="2288" y="-99.8" font-family="Times,serif" font-size="14.00" fill="#000000">MenuComponent</text>
</g>
<!-- MenuComponent&#45;&gt;AppModule -->
<g id="edge2" class="edge">
<title>MenuComponent&#45;&gt;AppModule</title>
<path fill="none" stroke="#000000" d="M2288,-122.302C2288,-140.2699 2288,-165 2288,-165 2288,-165 1920.7072,-165 1920.7072,-165"/>
<polygon fill="#000000" stroke="#000000" points="1920.7072,-161.5001 1910.7072,-165 1920.7071,-168.5001 1920.7072,-161.5001"/>
</g>
<!-- RodapeComponent -->
<g id="node3" class="node">
<title>RodapeComponent</title>
<polygon fill="#ffffb3" stroke="#000000" points="2213.0982,-122 2088.9018,-122 2088.9018,-86 2213.0982,-86 2213.0982,-122"/>
<text text-anchor="middle" x="2151" y="-99.8" font-family="Times,serif" font-size="14.00" fill="#000000">RodapeComponent</text>
</g>
<!-- RodapeComponent&#45;&gt;AppModule -->
<g id="edge3" class="edge">
<title>RodapeComponent&#45;&gt;AppModule</title>
<path fill="none" stroke="#000000" d="M2151,-122.0336C2151,-139.0597 2151,-162 2151,-162 2151,-162 1920.9137,-162 1920.9137,-162"/>
<polygon fill="#000000" stroke="#000000" points="1920.9138,-158.5001 1910.9137,-162 1920.9137,-165.5001 1920.9138,-158.5001"/>
</g>
<!-- EntrarComponent -->
<g id="node4" class="node">
<title>EntrarComponent</title>
<polygon fill="#ffffb3" stroke="#000000" points="2071.3118,-122 1954.6882,-122 1954.6882,-86 2071.3118,-86 2071.3118,-122"/>
<text text-anchor="middle" x="2013" y="-99.8" font-family="Times,serif" font-size="14.00" fill="#000000">EntrarComponent</text>
</g>
<!-- EntrarComponent&#45;&gt;AppModule -->
<g id="edge4" class="edge">
<title>EntrarComponent&#45;&gt;AppModule</title>
<path fill="none" stroke="#000000" d="M2013,-122.2819C2013,-137.9478 2013,-158 2013,-158 2013,-158 1921.0379,-158 1921.0379,-158"/>
<polygon fill="#000000" stroke="#000000" points="1921.0379,-154.5001 1911.0379,-158 1921.0378,-161.5001 1921.0379,-154.5001"/>
</g>
<!-- CadastrarComponent -->
<g id="node5" class="node">
<title>CadastrarComponent</title>
<polygon fill="#ffffb3" stroke="#000000" points="1936.4692,-122 1801.5308,-122 1801.5308,-86 1936.4692,-86 1936.4692,-122"/>
<text text-anchor="middle" x="1869" y="-99.8" font-family="Times,serif" font-size="14.00" fill="#000000">CadastrarComponent</text>
</g>
<!-- CadastrarComponent&#45;&gt;AppModule -->
<g id="edge5" class="edge">
<title>CadastrarComponent&#45;&gt;AppModule</title>
<path fill="none" stroke="#000000" d="M1869,-122.2228C1869,-122.2228 1869,-143.7269 1869,-143.7269"/>
<polygon fill="#000000" stroke="#000000" points="1865.5001,-143.7269 1869,-153.7269 1872.5001,-143.727 1865.5001,-143.7269"/>
</g>
<!-- InicioComponent -->
<g id="node6" class="node">
<title>InicioComponent</title>
<polygon fill="#ffffb3" stroke="#000000" points="1783.9888,-122 1670.0112,-122 1670.0112,-86 1783.9888,-86 1783.9888,-122"/>
<text text-anchor="middle" x="1727" y="-99.8" font-family="Times,serif" font-size="14.00" fill="#000000">InicioComponent</text>
</g>
<!-- InicioComponent&#45;&gt;AppModule -->
<g id="edge6" class="edge">
<title>InicioComponent&#45;&gt;AppModule</title>
<path fill="none" stroke="#000000" d="M1727,-122.2819C1727,-137.9478 1727,-158 1727,-158 1727,-158 1817.1633,-158 1817.1633,-158"/>
<polygon fill="#000000" stroke="#000000" points="1817.1634,-161.5001 1827.1633,-158 1817.1633,-154.5001 1817.1634,-161.5001"/>
</g>
<!-- TemaComponent -->
<g id="node7" class="node">
<title>TemaComponent</title>
<polygon fill="#ffffb3" stroke="#000000" points="1651.705,-122 1538.295,-122 1538.295,-86 1651.705,-86 1651.705,-122"/>
<text text-anchor="middle" x="1595" y="-99.8" font-family="Times,serif" font-size="14.00" fill="#000000">TemaComponent</text>
</g>
<!-- TemaComponent&#45;&gt;AppModule -->
<g id="edge7" class="edge">
<title>TemaComponent&#45;&gt;AppModule</title>
<path fill="none" stroke="#000000" d="M1595,-122.0336C1595,-139.0597 1595,-162 1595,-162 1595,-162 1817.087,-162 1817.087,-162"/>
<polygon fill="#000000" stroke="#000000" points="1817.0871,-165.5001 1827.087,-162 1817.087,-158.5001 1817.0871,-165.5001"/>
</g>
<!-- TemaEditComponent -->
<g id="node8" class="node">
<title>TemaEditComponent</title>
<polygon fill="#ffffb3" stroke="#000000" points="1520.0394,-122 1383.9606,-122 1383.9606,-86 1520.0394,-86 1520.0394,-122"/>
<text text-anchor="middle" x="1452" y="-99.8" font-family="Times,serif" font-size="14.00" fill="#000000">TemaEditComponent</text>
</g>
<!-- TemaEditComponent&#45;&gt;AppModule -->
<g id="edge8" class="edge">
<title>TemaEditComponent&#45;&gt;AppModule</title>
<path fill="none" stroke="#000000" d="M1452,-122.302C1452,-140.2699 1452,-165 1452,-165 1452,-165 1817.1072,-165 1817.1072,-165"/>
<polygon fill="#000000" stroke="#000000" points="1817.1072,-168.5001 1827.1072,-165 1817.1071,-161.5001 1817.1072,-168.5001"/>
</g>
<!-- TemaDeleteComponent -->
<g id="node9" class="node">
<title>TemaDeleteComponent</title>
<polygon fill="#ffffb3" stroke="#000000" points="1365.7366,-122 1216.2634,-122 1216.2634,-86 1365.7366,-86 1365.7366,-122"/>
<text text-anchor="middle" x="1291" y="-99.8" font-family="Times,serif" font-size="14.00" fill="#000000">TemaDeleteComponent</text>
</g>
<!-- TemaDeleteComponent&#45;&gt;AppModule -->
<g id="edge9" class="edge">
<title>TemaDeleteComponent&#45;&gt;AppModule</title>
<path fill="none" stroke="#000000" d="M1291,-122.1061C1291,-141.3391 1291,-169 1291,-169 1291,-169 1816.9661,-169 1816.9661,-169"/>
<polygon fill="#000000" stroke="#000000" points="1816.9661,-172.5001 1826.9661,-169 1816.966,-165.5001 1816.9661,-172.5001"/>
</g>
<!-- PostagemEditComponent -->
<g id="node10" class="node">
<title>PostagemEditComponent</title>
<polygon fill="#ffffb3" stroke="#000000" points="1198.6038,-122 1039.3962,-122 1039.3962,-86 1198.6038,-86 1198.6038,-122"/>
<text text-anchor="middle" x="1119" y="-99.8" font-family="Times,serif" font-size="14.00" fill="#000000">PostagemEditComponent</text>
</g>
<!-- PostagemEditComponent&#45;&gt;AppModule -->
<g id="edge10" class="edge">
<title>PostagemEditComponent&#45;&gt;AppModule</title>
<path fill="none" stroke="#000000" d="M1119,-122.2228C1119,-142.3652 1119,-172 1119,-172 1119,-172 1817.3394,-172 1817.3394,-172"/>
<polygon fill="#000000" stroke="#000000" points="1817.3395,-175.5001 1827.3394,-172 1817.3394,-168.5001 1817.3395,-175.5001"/>
</g>
<!-- PostagemDeleteComponent -->
<g id="node11" class="node">
<title>PostagemDeleteComponent</title>
<polygon fill="#ffffb3" stroke="#000000" points="1021.3019,-122 848.6981,-122 848.6981,-86 1021.3019,-86 1021.3019,-122"/>
<text text-anchor="middle" x="935" y="-99.8" font-family="Times,serif" font-size="14.00" fill="#000000">PostagemDeleteComponent</text>
</g>
<!-- PostagemDeleteComponent&#45;&gt;AppModule -->
<g id="edge11" class="edge">
<title>PostagemDeleteComponent&#45;&gt;AppModule</title>
<path fill="none" stroke="#000000" d="M935,-122.1686C935,-143.498 935,-176 935,-176 935,-176 1817.0535,-176 1817.0535,-176"/>
<polygon fill="#000000" stroke="#000000" points="1817.0535,-179.5001 1827.0535,-176 1817.0534,-172.5001 1817.0535,-179.5001"/>
</g>
<!-- UserEditComponent -->
<g id="node12" class="node">
<title>UserEditComponent</title>
<polygon fill="#ffffb3" stroke="#000000" points="830.5926,-122 699.4074,-122 699.4074,-86 830.5926,-86 830.5926,-122"/>
<text text-anchor="middle" x="765" y="-99.8" font-family="Times,serif" font-size="14.00" fill="#000000">UserEditComponent</text>
</g>
<!-- UserEditComponent&#45;&gt;AppModule -->
<g id="edge12" class="edge">
<title>UserEditComponent&#45;&gt;AppModule</title>
<path fill="none" stroke="#000000" d="M765,-122.0109C765,-144.4852 765,-180 765,-180 765,-180 1817.07,-180 1817.07,-180"/>
<polygon fill="#000000" stroke="#000000" points="1817.07,-183.5001 1827.07,-180 1817.07,-176.5001 1817.07,-183.5001"/>
</g>
<!-- AlertasComponent -->
<g id="node13" class="node">
<title>AlertasComponent</title>
<polygon fill="#ffffb3" stroke="#000000" points="681.7548,-122 560.2452,-122 560.2452,-86 681.7548,-86 681.7548,-122"/>
<text text-anchor="middle" x="621" y="-99.8" font-family="Times,serif" font-size="14.00" fill="#000000">AlertasComponent</text>
</g>
<!-- AlertasComponent&#45;&gt;AppModule -->
<g id="edge13" class="edge">
<title>AlertasComponent&#45;&gt;AppModule</title>
<path fill="none" stroke="#000000" d="M621,-122.3228C621,-145.6602 621,-183 621,-183 621,-183 1817.1199,-183 1817.1199,-183"/>
<polygon fill="#000000" stroke="#000000" points="1817.12,-186.5001 1827.1199,-183 1817.1199,-179.5001 1817.12,-186.5001"/>
</g>
<!-- AppComponent  -->
<g id="node20" class="node">
<title>AppComponent </title>
<polygon fill="#80b1d3" stroke="#000000" points="1923.439,-258 1814.561,-258 1814.561,-222 1923.439,-222 1923.439,-258"/>
<text text-anchor="middle" x="1869" y="-235.8" font-family="Times,serif" font-size="14.00" fill="#000000">AppComponent </text>
</g>
<!-- AppModule&#45;&gt;AppComponent  -->
<g id="edge19" class="edge">
<title>AppModule&#45;&gt;AppComponent </title>
<path fill="none" stroke="#000000" stroke-dasharray="1,5" d="M1869,-190.2228C1869,-190.2228 1869,-211.7269 1869,-211.7269"/>
<polygon fill="#000000" stroke="#000000" points="1865.5001,-211.7269 1869,-221.7269 1872.5001,-211.727 1865.5001,-211.7269"/>
</g>
<!-- BrowserModule -->
<g id="node15" class="node">
<title>BrowserModule</title>
<polygon fill="#8dd3c7" stroke="#000000" points="3021.4734,-122 3018.4734,-126 2997.4734,-126 2994.4734,-122 2914.5266,-122 2914.5266,-86 3021.4734,-86 3021.4734,-122"/>
<text text-anchor="middle" x="2968" y="-99.8" font-family="Times,serif" font-size="14.00" fill="#000000">BrowserModule</text>
</g>
<!-- BrowserModule&#45;&gt;AppModule -->
<g id="edge14" class="edge">
<title>BrowserModule&#45;&gt;AppModule</title>
<path fill="none" stroke="#000000" d="M2968,-122.3228C2968,-145.6602 2968,-183 2968,-183 2968,-183 1920.7401,-183 1920.7401,-183"/>
<polygon fill="#000000" stroke="#000000" points="1920.7401,-179.5001 1910.7401,-183 1920.7401,-186.5001 1920.7401,-179.5001"/>
</g>
<!-- AppRoutingModule -->
<g id="node16" class="node">
<title>AppRoutingModule</title>
<polygon fill="#8dd3c7" stroke="#000000" points="3168.2744,-122 3165.2744,-126 3144.2744,-126 3141.2744,-122 3039.7256,-122 3039.7256,-86 3168.2744,-86 3168.2744,-122"/>
<text text-anchor="middle" x="3104" y="-99.8" font-family="Times,serif" font-size="14.00" fill="#000000">AppRoutingModule</text>
</g>
<!-- AppRoutingModule&#45;&gt;AppModule -->
<g id="edge15" class="edge">
<title>AppRoutingModule&#45;&gt;AppModule</title>
<path fill="none" stroke="#000000" d="M3104,-122.0098C3104,-146.4207 3104,-187 3104,-187 3104,-187 1920.7983,-187 1920.7983,-187"/>
<polygon fill="#000000" stroke="#000000" points="1920.7984,-183.5001 1910.7983,-187 1920.7983,-190.5001 1920.7984,-183.5001"/>
</g>
<!-- RouterModule  -->
<g id="node23" class="node">
<title>RouterModule </title>
<polygon fill="#fb8072" stroke="#000000" points="3309.6523,-190 3208.3477,-190 3208.3477,-154 3309.6523,-154 3309.6523,-190"/>
<text text-anchor="middle" x="3259" y="-167.8" font-family="Times,serif" font-size="14.00" fill="#000000">RouterModule </text>
</g>
<!-- AppRoutingModule&#45;&gt;RouterModule  -->
<g id="edge22" class="edge">
<title>AppRoutingModule&#45;&gt;RouterModule </title>
<path fill="none" stroke="#000000" stroke-dasharray="5,2" d="M3168.3874,-110C3210.9734,-110 3259,-110 3259,-110 3259,-110 3259,-143.7333 3259,-143.7333"/>
<polygon fill="#000000" stroke="#000000" points="3255.5001,-143.7333 3259,-153.7333 3262.5001,-143.7333 3255.5001,-143.7333"/>
</g>
<!-- HttpClientModule -->
<g id="node17" class="node">
<title>HttpClientModule</title>
<polygon fill="#8dd3c7" stroke="#000000" points="2725.1611,-122 2722.1611,-126 2701.1611,-126 2698.1611,-122 2606.8389,-122 2606.8389,-86 2725.1611,-86 2725.1611,-122"/>
<text text-anchor="middle" x="2666" y="-99.8" font-family="Times,serif" font-size="14.00" fill="#000000">HttpClientModule</text>
</g>
<!-- HttpClientModule&#45;&gt;AppModule -->
<g id="edge16" class="edge">
<title>HttpClientModule&#45;&gt;AppModule</title>
<path fill="none" stroke="#000000" d="M2666,-122.1686C2666,-143.498 2666,-176 2666,-176 2666,-176 1920.728,-176 1920.728,-176"/>
<polygon fill="#000000" stroke="#000000" points="1920.7281,-172.5001 1910.728,-176 1920.728,-179.5001 1920.7281,-172.5001"/>
</g>
<!-- FormsModule -->
<g id="node18" class="node">
<title>FormsModule</title>
<polygon fill="#8dd3c7" stroke="#000000" points="2588.8288,-122 2585.8288,-126 2564.8288,-126 2561.8288,-122 2493.1712,-122 2493.1712,-86 2588.8288,-86 2588.8288,-122"/>
<text text-anchor="middle" x="2541" y="-99.8" font-family="Times,serif" font-size="14.00" fill="#000000">FormsModule</text>
</g>
<!-- FormsModule&#45;&gt;AppModule -->
<g id="edge17" class="edge">
<title>FormsModule&#45;&gt;AppModule</title>
<path fill="none" stroke="#000000" d="M2541,-122.2228C2541,-142.3652 2541,-172 2541,-172 2541,-172 1920.7827,-172 1920.7827,-172"/>
<polygon fill="#000000" stroke="#000000" points="1920.7827,-168.5001 1910.7827,-172 1920.7827,-175.5001 1920.7827,-168.5001"/>
</g>
<!-- ModalModule.forRoot() -->
<g id="node19" class="node">
<title>ModalModule.forRoot()</title>
<polygon fill="#8dd3c7" stroke="#000000" points="2896.4699,-122 2893.4699,-126 2872.4699,-126 2869.4699,-122 2743.5301,-122 2743.5301,-86 2896.4699,-86 2896.4699,-122"/>
<text text-anchor="middle" x="2820" y="-99.8" font-family="Times,serif" font-size="14.00" fill="#000000">ModalModule.forRoot()</text>
</g>
<!-- ModalModule.forRoot()&#45;&gt;AppModule -->
<g id="edge18" class="edge">
<title>ModalModule.forRoot()&#45;&gt;AppModule</title>
<path fill="none" stroke="#000000" d="M2820,-122.0109C2820,-144.4852 2820,-180 2820,-180 2820,-180 1920.7821,-180 1920.7821,-180"/>
<polygon fill="#000000" stroke="#000000" points="1920.7821,-176.5001 1910.7821,-180 1920.782,-183.5001 1920.7821,-176.5001"/>
</g>
<!-- { provide: LocationStrategy, useClass: HashLocationStrategy } -->
<g id="node21" class="node">
<title>{ provide: LocationStrategy, useClass: HashLocationStrategy }</title>
<ellipse fill="#fdb462" stroke="#000000" cx="280" cy="-104" rx="256.1093" ry="18"/>
<text text-anchor="middle" x="280" y="-99.8" font-family="Times,serif" font-size="14.00" fill="#000000">{ provide: LocationStrategy, useClass: HashLocationStrategy }</text>
</g>
<!-- { provide: LocationStrategy, useClass: HashLocationStrategy }&#45;&gt;AppModule -->
<g id="edge20" class="edge">
<title>{ provide: LocationStrategy, useClass: HashLocationStrategy }&#45;&gt;AppModule</title>
<path fill="none" stroke="#000000" d="M280,-122.0098C280,-146.4207 280,-187 280,-187 280,-187 1817.3149,-187 1817.3149,-187"/>
<polygon fill="#000000" stroke="#000000" points="1817.3149,-190.5001 1827.3149,-187 1817.3148,-183.5001 1817.3149,-190.5001"/>
</g>
<!-- RouterModule.forRoot(args) -->
<g id="node22" class="node">
<title>RouterModule.forRoot(args)</title>
<polygon fill="#8dd3c7" stroke="#000000" points="3511.8419,-190 3508.8419,-194 3487.8419,-194 3484.8419,-190 3334.1581,-190 3334.1581,-154 3511.8419,-154 3511.8419,-190"/>
<text text-anchor="middle" x="3423" y="-167.8" font-family="Times,serif" font-size="14.00" fill="#000000">RouterModule.forRoot(args)</text>
</g>
<!-- RouterModule.forRoot(args)&#45;&gt;AppRoutingModule -->
<g id="edge21" class="edge">
<title>RouterModule.forRoot(args)&#45;&gt;AppRoutingModule</title>
<path fill="none" stroke="#000000" d="M3423,-153.7079C3423,-131.7943 3423,-98 3423,-98 3423,-98 3178.5544,-98 3178.5544,-98"/>
<polygon fill="#000000" stroke="#000000" points="3178.5544,-94.5001 3168.5544,-98 3178.5544,-101.5001 3178.5544,-94.5001"/>
</g>
</g>
</svg>
